<svg width="48" height="48" viewBox="0 0 48 48" fill="none" xmlns="http://www.w3.org/2000/svg">
<path d="M37.324 20.0259L15.324 7.61394C14.6055 7.20336 13.7911 6.9904 12.9637 6.99672C12.1362 7.00304 11.3251 7.22843 10.613 7.64994C9.91924 8.04673 9.34286 8.62008 8.9424 9.31174C8.54195 10.0034 8.3317 10.7887 8.33301 11.5879V36.4119C8.3317 37.2112 8.54195 37.9965 8.9424 38.6882C9.34286 39.3798 9.91924 39.9532 10.613 40.3499C11.3252 40.7713 12.1362 40.9965 12.9637 41.0029C13.7911 41.0092 14.6055 40.7963 15.324 40.3859L37.324 27.9739C38.0335 27.5809 38.6249 27.0051 39.0367 26.3062C39.4485 25.6074 39.6656 24.8111 39.6656 23.9999C39.6656 23.1888 39.4485 22.3925 39.0367 21.6937C38.6249 20.9948 38.0335 20.419 37.324 20.0259Z" fill="white"/>
</svg>
