<svg width="20" height="20" viewBox="0 0 20 20" fill="none" xmlns="http://www.w3.org/2000/svg">
<path d="M3.3335 18.3333C3.3335 16.5652 4.03588 14.8695 5.28612 13.6193C6.53636 12.3691 8.23205 11.6667 10.0002 11.6667C11.7683 11.6667 13.464 12.3691 14.7142 13.6193C15.9644 14.8695 16.6668 16.5652 16.6668 18.3333H15.0002C15.0002 17.0073 14.4734 15.7355 13.5357 14.7978C12.598 13.8601 11.3262 13.3333 10.0002 13.3333C8.67408 13.3333 7.40231 13.8601 6.46463 14.7978C5.52695 15.7355 5.00016 17.0073 5.00016 18.3333H3.3335ZM10.0002 10.8333C7.23766 10.8333 5.00016 8.59584 5.00016 5.83334C5.00016 3.07084 7.23766 0.833344 10.0002 0.833344C12.7627 0.833344 15.0002 3.07084 15.0002 5.83334C15.0002 8.59584 12.7627 10.8333 10.0002 10.8333ZM10.0002 9.16668C11.8418 9.16668 13.3335 7.67501 13.3335 5.83334C13.3335 3.99168 11.8418 2.50001 10.0002 2.50001C8.1585 2.50001 6.66683 3.99168 6.66683 5.83334C6.66683 7.67501 8.1585 9.16668 10.0002 9.16668Z" fill="#1E2228"/>
</svg>
