<svg width="32" height="32" viewBox="0 0 32 32" fill="none" xmlns="http://www.w3.org/2000/svg">
<circle cx="16" cy="16" r="16" fill="#FDF6DE"/>
<path d="M14.4799 20.5H15.2502V16.75H16.7502V20.5H17.5204C17.6194 19.5985 18.0792 18.8545 18.8254 18.0422C18.9102 17.9507 19.4494 17.392 19.5132 17.3125C20.0429 16.6507 20.3749 15.8528 20.471 15.0106C20.5671 14.1684 20.4234 13.3161 20.0563 12.552C19.6893 11.7879 19.114 11.143 18.3965 10.6916C17.679 10.2402 16.8486 10.0006 16.001 10.0004C15.1533 10.0002 14.3228 10.2395 13.6051 10.6906C12.8875 11.1417 12.3118 11.7864 11.9445 12.5503C11.5772 13.3142 11.4331 14.1664 11.5288 15.0087C11.6245 15.8509 11.9562 16.649 12.4857 17.311C12.5502 17.3912 13.0909 17.9507 13.1742 18.0415C13.9212 18.8545 14.3809 19.5985 14.4799 20.5ZM14.5002 22V22.75H17.5002V22H14.5002ZM11.3157 18.25C10.6093 17.3675 10.1666 16.3033 10.0386 15.1802C9.91059 14.0571 10.1025 12.9206 10.5921 11.9018C11.0817 10.8829 11.8492 10.0231 12.8062 9.42142C13.7631 8.8197 14.8706 8.50055 16.001 8.50073C17.1314 8.50091 18.2387 8.82042 19.1955 9.42244C20.1522 10.0245 20.9194 10.8845 21.4087 11.9035C21.8981 12.9225 22.0896 14.059 21.9612 15.1821C21.8328 16.3052 21.3898 17.3692 20.6832 18.2515C20.2182 18.8305 19.0002 19.75 19.0002 20.875V22.75C19.0002 23.1478 18.8421 23.5293 18.5608 23.8106C18.2795 24.0919 17.898 24.25 17.5002 24.25H14.5002C14.1023 24.25 13.7208 24.0919 13.4395 23.8106C13.1582 23.5293 13.0002 23.1478 13.0002 22.75V20.875C13.0002 19.75 11.7814 18.8305 11.3157 18.25Z" fill="#FFC700"/>
</svg>
