<svg width="20" height="20" viewBox="0 0 20 20" fill="none" xmlns="http://www.w3.org/2000/svg">
<path d="M5.4165 9.58334C4.92405 9.58334 4.43641 9.48634 3.98144 9.29788C3.52647 9.10943 3.11307 8.83321 2.76485 8.48499C2.41663 8.13677 2.14041 7.72337 1.95196 7.2684C1.7635 6.81343 1.6665 6.32579 1.6665 5.83334C1.6665 5.34088 1.7635 4.85324 1.95196 4.39827C2.14041 3.9433 2.41663 3.52991 2.76485 3.18169C3.11307 2.83347 3.52647 2.55724 3.98144 2.36879C4.43641 2.18033 4.92405 2.08334 5.4165 2.08334C6.41107 2.08334 7.36489 2.47842 8.06815 3.18169C8.77141 3.88495 9.1665 4.83877 9.1665 5.83334C9.1665 6.8279 8.77141 7.78172 8.06815 8.48499C7.36489 9.18825 6.41107 9.58334 5.4165 9.58334ZM5.83317 17.9167C4.83861 17.9167 3.88478 17.5216 3.18152 16.8183C2.47826 16.1151 2.08317 15.1612 2.08317 14.1667C2.08317 13.1721 2.47826 12.2183 3.18152 11.515C3.88478 10.8118 4.83861 10.4167 5.83317 10.4167C6.82773 10.4167 7.78156 10.8118 8.48482 11.515C9.18808 12.2183 9.58317 13.1721 9.58317 14.1667C9.58317 15.1612 9.18808 16.1151 8.48482 16.8183C7.78156 17.5216 6.82773 17.9167 5.83317 17.9167ZM14.1665 9.58334C13.674 9.58334 13.1864 9.48634 12.7314 9.29788C12.2765 9.10943 11.8631 8.83321 11.5149 8.48499C11.1666 8.13677 10.8904 7.72337 10.702 7.2684C10.5135 6.81343 10.4165 6.32579 10.4165 5.83334C10.4165 5.34088 10.5135 4.85324 10.702 4.39827C10.8904 3.9433 11.1666 3.52991 11.5149 3.18169C11.8631 2.83347 12.2765 2.55724 12.7314 2.36879C13.1864 2.18033 13.674 2.08334 14.1665 2.08334C15.1611 2.08334 16.1149 2.47842 16.8182 3.18169C17.5214 3.88495 17.9165 4.83877 17.9165 5.83334C17.9165 6.8279 17.5214 7.78172 16.8182 8.48499C16.1149 9.18825 15.1611 9.58334 14.1665 9.58334ZM14.1665 17.9167C13.1719 17.9167 12.2181 17.5216 11.5149 16.8183C10.8116 16.1151 10.4165 15.1612 10.4165 14.1667C10.4165 13.1721 10.8116 12.2183 11.5149 11.515C12.2181 10.8118 13.1719 10.4167 14.1665 10.4167C15.1611 10.4167 16.1149 10.8118 16.8182 11.515C17.5214 12.2183 17.9165 13.1721 17.9165 14.1667C17.9165 15.1612 17.5214 16.1151 16.8182 16.8183C16.1149 17.5216 15.1611 17.9167 14.1665 17.9167ZM5.4165 7.91667C5.96904 7.91667 6.49894 7.69718 6.88964 7.30648C7.28034 6.91577 7.49984 6.38587 7.49984 5.83334C7.49984 5.2808 7.28034 4.7509 6.88964 4.3602C6.49894 3.9695 5.96904 3.75 5.4165 3.75C4.86397 3.75 4.33407 3.9695 3.94336 4.3602C3.55266 4.7509 3.33317 5.2808 3.33317 5.83334C3.33317 6.38587 3.55266 6.91577 3.94336 7.30648C4.33407 7.69718 4.86397 7.91667 5.4165 7.91667ZM5.83317 16.25C6.3857 16.25 6.91561 16.0305 7.30631 15.6398C7.69701 15.2491 7.9165 14.7192 7.9165 14.1667C7.9165 13.6141 7.69701 13.0842 7.30631 12.6935C6.91561 12.3028 6.3857 12.0833 5.83317 12.0833C5.28064 12.0833 4.75073 12.3028 4.36003 12.6935C3.96933 13.0842 3.74984 13.6141 3.74984 14.1667C3.74984 14.7192 3.96933 15.2491 4.36003 15.6398C4.75073 16.0305 5.28064 16.25 5.83317 16.25ZM14.1665 7.91667C14.719 7.91667 15.2489 7.69718 15.6396 7.30648C16.0303 6.91577 16.2498 6.38587 16.2498 5.83334C16.2498 5.2808 16.0303 4.7509 15.6396 4.3602C15.2489 3.9695 14.719 3.75 14.1665 3.75C13.614 3.75 13.0841 3.9695 12.6934 4.3602C12.3027 4.7509 12.0832 5.2808 12.0832 5.83334C12.0832 6.38587 12.3027 6.91577 12.6934 7.30648C13.0841 7.69718 13.614 7.91667 14.1665 7.91667ZM14.1665 16.25C14.719 16.25 15.2489 16.0305 15.6396 15.6398C16.0303 15.2491 16.2498 14.7192 16.2498 14.1667C16.2498 13.6141 16.0303 13.0842 15.6396 12.6935C15.2489 12.3028 14.719 12.0833 14.1665 12.0833C13.614 12.0833 13.0841 12.3028 12.6934 12.6935C12.3027 13.0842 12.0832 13.6141 12.0832 14.1667C12.0832 14.7192 12.3027 15.2491 12.6934 15.6398C13.0841 16.0305 13.614 16.25 14.1665 16.25Z" fill="#A75FFF"/>
</svg>
