<svg width="84" height="12" viewBox="0 0 84 12" fill="none" xmlns="http://www.w3.org/2000/svg">
<path d="M19.3779 11.0854V1.24854H26.3246V2.92918H21.5207V5.43985H25.8904V7.1136H21.5277V11.0854H19.3779Z" fill="black"/>
<path d="M27.6309 11.0853V0.548706H29.6476V11.0853H27.6309Z" fill="black"/>
<path d="M34.2248 3.24463C34.883 3.24463 35.4573 3.35439 35.9475 3.5739C36.4423 3.79341 36.8041 4.09981 37.0329 4.49311L37.1239 3.36125H39.0496V11.0853H37.1239L37.0329 9.94659C36.6034 10.7789 35.6673 11.1951 34.2248 11.1951C33.7159 11.1951 33.2327 11.0968 32.7752 10.9001C32.3224 10.7035 31.9255 10.4314 31.5848 10.0838C31.2486 9.73625 30.9849 9.31322 30.7935 8.81477C30.6021 8.31625 30.5063 7.78579 30.5063 7.22328C30.5063 6.66077 30.6021 6.13031 30.7935 5.63182C30.9849 5.13335 31.2486 4.70805 31.5848 4.35591C31.9255 4.00835 32.3224 3.73625 32.7752 3.5396C33.2327 3.34295 33.7159 3.24463 34.2248 3.24463ZM34.771 9.52128C35.4012 9.52128 35.9381 9.30408 36.3816 8.86962C36.8157 8.43517 37.0329 7.88414 37.0329 7.21642C37.0329 6.54877 36.8157 5.99997 36.3816 5.57009C35.9428 5.14021 35.4059 4.92527 34.771 4.92527C34.1361 4.92527 33.6062 5.14021 33.1814 5.57009C32.7472 5.99997 32.5301 6.55105 32.5301 7.22328C32.5301 7.88642 32.7472 8.43517 33.1814 8.86962C33.6155 9.30408 34.1454 9.52128 34.771 9.52128Z" fill="black"/>
<path d="M41.1051 3.36127V1.6189H43.1219V3.36127H45.0686V4.90472H43.1219V8.41005C43.1219 9.04114 43.3646 9.39102 43.8502 9.45959C44.2189 9.53737 44.6251 9.53279 45.0686 9.44588V11.0717C44.5457 11.1539 44.0555 11.1951 43.598 11.1951C42.697 11.1951 42.0575 10.9733 41.6793 10.5297C41.2965 10.0861 41.1051 9.40245 41.1051 8.47868V4.90472H40.0337V3.36127H41.1051Z" fill="black"/>
<path d="M49.7292 11.1951C48.9449 11.1951 48.2306 11.0351 47.5863 10.7149C46.9468 10.3948 46.4333 9.93288 46.0458 9.32922C45.6536 8.71642 45.4575 8.01442 45.4575 7.22328C45.4575 6.42299 45.6536 5.71871 46.0458 5.11049C46.4379 4.49768 46.9561 4.0335 47.6003 3.71795C48.2446 3.40241 48.9542 3.24463 49.7292 3.24463C50.5088 3.24463 51.2184 3.40469 51.858 3.72481C52.5022 4.04494 53.0204 4.50682 53.4126 5.11049C53.8047 5.71871 54.0008 6.42299 54.0008 7.22328C54.0008 8.01442 53.8047 8.71642 53.4126 9.32922C53.0111 9.94659 52.4905 10.4108 51.851 10.7217C51.2067 11.0373 50.4994 11.1951 49.7292 11.1951ZM49.7292 9.52128C50.3547 9.52128 50.8893 9.30408 51.3328 8.86962C51.7716 8.43974 51.991 7.88871 51.991 7.21642C51.991 6.54877 51.7716 5.99997 51.3328 5.57009C50.894 5.14021 50.3594 4.92527 49.7292 4.92527C49.0943 4.92527 48.5597 5.14021 48.1256 5.57009C47.6867 5.99997 47.4673 6.54877 47.4673 7.21642C47.4673 7.88871 47.6867 8.43974 48.1256 8.86962C48.5597 9.30408 49.0943 9.52128 49.7292 9.52128Z" fill="black"/>
<path d="M62.5691 11.0853H60.5595V7.22328C60.5595 6.45499 60.4242 5.88105 60.1535 5.50149C59.8829 5.11734 59.453 4.92527 58.865 4.92527C58.2253 4.92527 57.7352 5.13106 57.3943 5.54265C57.0489 5.96339 56.8761 6.52357 56.8761 7.22328V11.0853H54.8594V3.36125H56.7921L56.8761 4.49311C57.3523 3.66079 58.2417 3.24463 59.544 3.24463C60.6225 3.24463 61.3955 3.58305 61.8621 4.25987C62.3335 4.94127 62.5691 5.92911 62.5691 7.22328V11.0853Z" fill="black"/>
<path d="M64.6874 2.34603C64.3514 2.34603 64.0667 2.23171 63.8334 2.00305C63.6001 1.77439 63.4834 1.49543 63.4834 1.16616C63.4834 0.846034 63.6001 0.571646 63.8334 0.342988C64.0667 0.114329 64.3514 0 64.6874 0C65.0146 0 65.2946 0.114329 65.528 0.342988C65.7613 0.571646 65.878 0.846034 65.878 1.16616C65.878 1.49543 65.7613 1.77439 65.528 2.00305C65.2946 2.23171 65.0146 2.34603 64.6874 2.34603ZM63.6724 11.0854V3.36128H65.689V11.0854H63.6724Z" fill="black"/>
<path d="M70.7351 9.56248C71.1505 9.56248 71.5244 9.46185 71.8557 9.26065C72.187 9.05939 72.4437 8.77128 72.6257 8.39631L74.4749 9.13031C74.1476 9.76139 73.646 10.2644 72.9693 10.6395C72.2874 11.0099 71.543 11.1951 70.7351 11.1951C69.9511 11.1951 69.2365 11.0351 68.5925 10.7149C67.9526 10.3948 67.4393 9.93288 67.052 9.32922C66.6594 8.71642 66.4634 8.01442 66.4634 7.22328C66.4634 6.42299 66.6594 5.71871 67.052 5.11049C67.444 4.49768 67.962 4.0335 68.6065 3.71795C69.2505 3.40241 69.9605 3.24463 70.7351 3.24463C71.543 3.24463 72.2874 3.42985 72.9693 3.80027C73.646 4.17527 74.1476 4.67832 74.4749 5.30942L72.6257 6.05025C72.4437 5.67527 72.187 5.38716 71.8557 5.18594C71.5244 4.98472 71.1505 4.88411 70.7351 4.88411C70.1005 4.88411 69.5655 5.10134 69.1315 5.53579C68.6929 5.96568 68.4735 6.52591 68.4735 7.21642C68.4735 7.91157 68.6929 8.47402 69.1315 8.90391C69.5655 9.34294 70.1005 9.56248 70.7351 9.56248Z" fill="black"/>
<path d="M78.6869 3.24463C79.3449 3.24463 79.9195 3.35439 80.4095 3.5739C80.9042 3.79341 81.2664 4.09981 81.4951 4.49311L81.5861 3.36125H83.5117V11.0853H81.5861L81.4951 9.94659C81.0657 10.7789 80.1295 11.1951 78.6869 11.1951C78.1782 11.1951 77.6947 11.0968 77.2373 10.9001C76.7847 10.7035 76.388 10.4314 76.0467 10.0838C75.7107 9.73625 75.4471 9.31322 75.2557 8.81477C75.0644 8.31625 74.9688 7.78579 74.9688 7.22328C74.9688 6.66077 75.0644 6.13031 75.2557 5.63182C75.4471 5.13335 75.7107 4.70805 76.0467 4.35591C76.388 4.00835 76.7847 3.73625 77.2373 3.5396C77.6947 3.34295 78.1782 3.24463 78.6869 3.24463ZM79.2329 9.52128C79.8635 9.52128 80.4002 9.30408 80.8435 8.86962C81.2781 8.43517 81.4951 7.88414 81.4951 7.21642C81.4951 6.54877 81.2781 5.99997 80.8435 5.57009C80.4048 5.14021 79.8682 4.92527 79.2329 4.92527C78.5982 4.92527 78.0686 5.14021 77.6433 5.57009C77.2093 5.99997 76.9923 6.55105 76.9923 7.22328C76.9923 7.88642 77.2093 8.43517 77.6433 8.86962C78.0779 9.30408 78.6076 9.52128 79.2329 9.52128Z" fill="black"/>
<path fill-rule="evenodd" clip-rule="evenodd" d="M1.99001 0.878052H11.1292H13.8282H13.9816L11.9802 12H5.01912L5.46036 9.59023H9.58481L9.9246 7.67183L9.91888 7.69846H5.79058L6.25333 5.29063H10.4213L10.7301 3.36572H4.34747L2.78968 11.9968L0 11.9817L1.55806 3.25057H1.55864L1.99001 0.878052Z" fill="black"/>
</svg>
