<svg width="16" height="10" viewBox="0 0 16 10" fill="none" xmlns="http://www.w3.org/2000/svg">
<path fill-rule="evenodd" clip-rule="evenodd" d="M7.83809 9.06801H8.70209C8.70209 9.06801 8.95409 9.03201 9.09809 8.88801C9.22408 8.76201 9.22408 8.51001 9.22408 8.51001C9.22408 8.51001 9.20609 7.35801 9.74609 7.17801C10.2681 7.01601 10.9521 8.29401 11.6721 8.78001C12.2121 9.15801 12.6261 9.06801 12.6261 9.06801L14.5521 9.05001C14.5521 9.05001 15.5601 8.99601 15.0741 8.20401C15.0381 8.13201 14.8041 7.61001 13.6521 6.54801C12.4461 5.432 12.6081 5.612 14.0661 3.668C14.9481 2.498 15.3081 1.778 15.2001 1.454C15.0921 1.166 14.4441 1.238 14.4441 1.238L12.2841 1.256C12.2841 1.256 12.1221 1.238 11.9961 1.31C11.8521 1.4 11.7801 1.562 11.7801 1.562C11.7801 1.562 11.4381 2.48 10.9881 3.254C10.0161 4.892 9.63809 4.982 9.47609 4.874C9.11609 4.64 9.20609 3.92 9.20609 3.416C9.20609 1.832 9.44009 1.166 8.73809 1.004C8.50409 0.949996 8.32409 0.913996 7.73009 0.895996C6.95609 0.895996 6.30809 0.895996 5.93009 1.076C5.67809 1.202 5.49809 1.472 5.60609 1.472C5.75009 1.49 6.07409 1.562 6.23609 1.796C6.45209 2.102 6.45209 2.768 6.45209 2.768C6.45209 2.768 6.57809 4.64 6.14609 4.874C5.85809 5.036 5.46209 4.712 4.59809 3.218C4.16609 2.462 3.82409 1.616 3.82409 1.616C3.82409 1.616 3.75209 1.454 3.64409 1.382C3.55409 1.31 3.37409 1.256 3.17609 1.256L1.25009 1.274C1.25009 1.274 0.944086 1.274 0.836086 1.418C0.728086 1.544 0.836086 1.778 0.836086 1.778C0.836086 1.778 2.45609 5.54 4.27409 7.43001C5.94809 9.19401 7.83809 9.06801 7.83809 9.06801Z" fill="white"/>
</svg>
