<svg width="18" height="18" viewBox="0 0 18 18" fill="none" xmlns="http://www.w3.org/2000/svg">
<path fill-rule="evenodd" clip-rule="evenodd" d="M8.83809 13.0678H9.70209C9.70209 13.0678 9.95409 13.0318 10.0981 12.8878C10.2241 12.7618 10.2241 12.5098 10.2241 12.5098C10.2241 12.5098 10.2061 11.3578 10.7461 11.1778C11.2681 11.0158 11.9521 12.2938 12.6721 12.7798C13.2121 13.1578 13.6261 13.0678 13.6261 13.0678L15.5521 13.0498C15.5521 13.0498 16.5601 12.9958 16.0741 12.2038C16.0381 12.1318 15.8041 11.6098 14.6521 10.5478C13.4461 9.43176 13.6081 9.61176 15.0661 7.66776C15.9481 6.49775 16.3081 5.77775 16.2001 5.45375C16.0921 5.16575 15.4441 5.23775 15.4441 5.23775L13.2841 5.25575C13.2841 5.25575 13.1221 5.23775 12.9961 5.30975C12.8521 5.39975 12.7801 5.56175 12.7801 5.56175C12.7801 5.56175 12.4381 6.47975 11.9881 7.25376C11.0161 8.89176 10.6381 8.98176 10.4761 8.87376C10.1161 8.63976 10.2061 7.91976 10.2061 7.41576C10.2061 5.83175 10.4401 5.16575 9.73809 5.00375C9.50409 4.94975 9.32409 4.91375 8.73009 4.89575C7.95609 4.89575 7.30809 4.89575 6.93009 5.07575C6.67809 5.20175 6.49809 5.47175 6.60609 5.47175C6.75009 5.48975 7.07409 5.56175 7.23609 5.79575C7.45209 6.10175 7.45209 6.76775 7.45209 6.76775C7.45209 6.76775 7.57809 8.63976 7.14609 8.87376C6.85809 9.03576 6.46209 8.71176 5.59809 7.21776C5.16609 6.46175 4.82409 5.61575 4.82409 5.61575C4.82409 5.61575 4.75209 5.45375 4.64409 5.38175C4.55409 5.30975 4.37409 5.25575 4.17609 5.25575L2.25009 5.27375C2.25009 5.27375 1.94409 5.27375 1.83609 5.41775C1.72809 5.54375 1.83609 5.77775 1.83609 5.77775C1.83609 5.77775 3.45609 9.53976 5.27409 11.4298C6.94809 13.1938 8.83809 13.0678 8.83809 13.0678Z" fill="#4787ED"/>
</svg>
